<?xml version="1.0" standalone="no"?>
<!DOCTYPE svg PUBLIC "-//W3C//DTD SVG 20010904//EN"
 "http://www.w3.org/TR/2001/REC-SVG-20010904/DTD/svg10.dtd">
<svg version="1.0" xmlns="http://www.w3.org/2000/svg"
 width="260.000000pt" height="260.000000pt" viewBox="0 0 260.000000 260.000000"
 preserveAspectRatio="xMidYMid meet">
<metadata>
Created by potrace 1.11, written by Peter Selinger 2001-2013
</metadata>
<g transform="translate(0.000000,260.000000) scale(0.100000,-0.100000)"
fill="#000000" stroke="none">
<path d="M0 2549 c0 -47 3 -54 40 -88 l41 -37 -25 -45 c-81 -144 -68 -336 31
-466 40 -52 41 -32 -16 -193 -51 -144 -65 -237 -66 -415 0 -92 6 -191 14 -233
12 -65 11 -75 -3 -91 -12 -13 -16 -39 -16 -106 l0 -89 38 37 39 38 18 -48 c53
-143 173 -321 301 -444 184 -177 382 -283 630 -340 143 -32 405 -32 548 0 193
44 362 122 515 239 l84 64 166 -166 166 -166 48 0 47 0 0 47 0 48 -166 166
-165 166 64 84 c119 158 196 325 238 519 20 86 24 134 24 270 0 136 -4 184
-24 270 -57 259 -180 481 -367 661 -128 123 -282 225 -417 274 l-48 18 38 39
37 38 -94 0 c-72 0 -97 -4 -111 -16 -16 -14 -26 -15 -76 -5 -220 43 -483 16
-725 -75 l-77 -29 -28 26 c-61 57 -177 99 -273 99 -67 0 -146 -21 -213 -57
l-49 -25 -42 41 c-36 35 -48 41 -84 41 l-42 0 0 -51z m571 -22 c105 -44 180
-121 219 -225 29 -77 29 -187 1 -263 -43 -113 -17 -127 -318 173 -191 191
-264 271 -257 278 6 6 38 22 70 35 82 34 205 34 285 2z m62 -684 c-83 -61
-271 -71 -372 -19 -188 97 -265 320 -177 513 l27 57 270 -269 c238 -239 267
-271 252 -282z"/>
</g>
</svg>
