<?xml version="1.0" standalone="no"?>
<!DOCTYPE svg PUBLIC "-//W3C//DTD SVG 20010904//EN"
 "http://www.w3.org/TR/2001/REC-SVG-20010904/DTD/svg10.dtd">
<svg version="1.0" xmlns="http://www.w3.org/2000/svg"
 width="260.000000pt" height="260.000000pt" viewBox="0 0 260.000000 260.000000"
 preserveAspectRatio="xMidYMid meet">
<metadata>
Created by potrace 1.11, written by Peter Selinger 2001-2013
</metadata>
<g transform="translate(0.000000,260.000000) scale(0.100000,-0.100000)"
fill="#000000" stroke="none">
<path d="M0 2550 c0 -44 4 -53 40 -90 l40 -40 -20 -33 c-39 -62 -60 -152 -56
-235 5 -93 32 -170 86 -242 26 -34 37 -57 31 -64 -5 -6 -19 -38 -32 -70 -63
-171 -88 -320 -84 -506 2 -80 6 -156 10 -170 16 -66 16 -106 1 -119 -12 -10
-16 -33 -16 -102 0 -49 4 -89 8 -89 5 0 18 14 31 31 12 16 27 29 32 27 5 -2
24 -37 42 -79 161 -369 507 -649 914 -739 145 -33 383 -35 523 -5 14 3 39 8
55 11 147 27 393 152 533 271 l34 28 166 -167 167 -168 48 0 47 0 0 46 0 47
-154 153 c-84 85 -159 160 -165 168 -10 12 1 32 57 106 115 151 212 369 238
535 3 22 10 60 14 85 9 48 6 305 -4 355 -4 17 -11 55 -17 85 -52 263 -231 554
-448 728 -97 78 -235 157 -359 208 l-23 9 30 30 c17 17 31 33 31 38 0 4 -39 7
-86 7 -65 0 -89 -4 -101 -16 -13 -12 -27 -14 -62 -9 -122 19 -176 23 -296 20
-122 -3 -297 -31 -350 -55 -11 -5 -47 -19 -80 -31 -33 -12 -65 -26 -72 -31 -7
-6 -23 1 -45 20 -80 69 -173 100 -294 98 -81 -2 -97 -6 -168 -40 l-78 -38 -42
41 c-36 35 -48 41 -84 41 l-42 0 0 -50z"/>
</g>
</svg>
